# xmcd CD database file
#
# Track frame offsets:
#	150
#	15683
#	27175
#	43190
#	58745
#	71950
#	84608
#	98793
#	118018
#	130085
#	146015
#	160180
#	178215
#	192390
#	209333
#	221930
#
# Disc length: 3148 seconds
#
# Revision: 1
# Processed by: cddbd v1.5.2PL0 Copyright (c) Steve Scherf et al.
# Submitted via: CDex 1.51
#
DISCID=f80c4a10
DTITLE=Mats Rådberg - Mats Rådberg and Rankarna
DYEAR=1995
DGENRE=Country
TTITLE0=Peta in en pinne i brasan
TTITLE1=Bright Lights And Country Music
TTITLE2=Gör det igen
TTITLE3=Achy Breaky Heart
TTITLE4=Vita duvan
TTITLE5=Ruby, Don't Take You love To Town
TTITLE6=Early Morning Rain
TTITLE7=Det är inte lätt att va ödmjuk
TTITLE8=Bra drag
TTITLE9=Precis som jag är
TTITLE10=Du kan alltid lita på pojkarna över 35
TTITLE11=I'm The Singer, You're The Song
TTITLE12=Klia mig på ryggen
TTITLE13=Garden Party
TTITLE14=Säg aldrig nej till en grabb med gitarr
TTITLE15=Love Me Tender
EXTD=YEAR: 1995
EXTT0=
EXTT1=
EXTT2=
EXTT3=
EXTT4=
EXTT5=
EXTT6=
EXTT7=
EXTT8=
EXTT9=
EXTT10=
EXTT11=
EXTT12=
EXTT13=
EXTT14=
EXTT15=
PLAYORDER=
